HIERARCHY
ROOT Hips
{
	OFFSET 0.00000 0.00000 0.00000
	CHANNELS 6 Xposition Yposition Zposition Zrotation Yrotation Xrotation 
	JOINT LHipJoint
	{
		OFFSET 0 0 0
		CHANNELS 3 Zrotation Yrotation Xrotation
		JOINT LeftUpLeg
		{
			OFFSET 1.58895 -1.83665 0.71753
			CHANNELS 3 Zrotation Yrotation Xrotation
			JOINT LeftLeg
			{
				OFFSET 2.50528 -6.88321 0.00000
				CHANNELS 3 Zrotation Yrotation Xrotation
				JOINT LeftFoot
				{
					OFFSET 2.63244 -7.23257 0.00000
					CHANNELS 3 Zrotation Yrotation Xrotation
					JOINT LeftToeBase
					{
						OFFSET 0.23691 -0.65090 1.72750
						CHANNELS 3 Zrotation Yrotation Xrotation
						End Site
						{
							OFFSET 0.00000 -0.00000 0.92561
						}
					}
				}
			}
		}
	}
	JOINT RHipJoint
	{
		OFFSET 0 0 0
		CHANNELS 3 Zrotation Yrotation Xrotation
		JOINT RightUpLeg
		{
			OFFSET -1.51435 -1.83665 0.71753
			CHANNELS 3 Zrotation Yrotation Xrotation
			JOINT RightLeg
			{
				OFFSET -2.54551 -6.99375 0.00000
				CHANNELS 3 Zrotation Yrotation Xrotation
				JOINT RightFoot
				{
					OFFSET -2.66027 -7.30903 0.00000
					CHANNELS 3 Zrotation Yrotation Xrotation
					JOINT RightToeBase
					{
						OFFSET -0.22981 -0.63138 2.03959
						CHANNELS 3 Zrotation Yrotation Xrotation
						End Site
						{
							OFFSET -0.00000 -0.00000 1.07060
						}
					}
				}
			}
		}
	}
	JOINT LowerBack
	{
		OFFSET 0 0 0
		CHANNELS 3 Zrotation Yrotation Xrotation
		JOINT Spine
		{
			OFFSET -0.02651 1.86275 -0.11152
			CHANNELS 3 Zrotation Yrotation Xrotation
			JOINT Spine1
			{
				OFFSET 0.01019 1.86224 0.04087
				CHANNELS 3 Zrotation Yrotation Xrotation
				JOINT Neck
				{
					OFFSET 0 0 0
					CHANNELS 3 Zrotation Yrotation Xrotation
					JOINT Neck1
					{
						OFFSET -0.01926 1.80512 0.08867
						CHANNELS 3 Zrotation Yrotation Xrotation
						JOINT Head
						{
							OFFSET 0.05516 1.76451 -0.38475
							CHANNELS 3 Zrotation Yrotation Xrotation
							End Site
							{
								OFFSET 0.01592 1.82587 -0.14001
							}
						}
					}
				}
				JOINT LeftShoulder
				{
					OFFSET 0 0 0
					CHANNELS 3 Zrotation Yrotation Xrotation
					JOINT LeftArm
					{
						OFFSET 3.47116 1.51376 0.14491
						CHANNELS 3 Zrotation Yrotation Xrotation
						JOINT LeftForeArm
						{
							OFFSET 4.78095 -0.00000 0.00000
							CHANNELS 3 Zrotation Yrotation Xrotation
							JOINT LeftHand
							{
								OFFSET 3.58615 -0.00000 -0.00000
								CHANNELS 3 Zrotation Yrotation Xrotation
								JOINT LeftFingerBase
								{
									OFFSET 0 0 0
									CHANNELS 3 Zrotation Yrotation Xrotation
									JOINT LeftHandIndex1
									{
										OFFSET 0.65981 -0.00000 0.00000
										CHANNELS 3 Zrotation Yrotation Xrotation
										End Site
										{
											OFFSET 0.53196 -0.00000 0.00000
										}
									}
								}
								JOINT LThumb
								{
									OFFSET 0 0 0
									CHANNELS 3 Zrotation Yrotation Xrotation
									End Site
									{
										OFFSET 0.54008 -0.00000 0.54008
									}
								}
							}
						}
					}
				}
				JOINT RightShoulder
				{
					OFFSET 0 0 0
					CHANNELS 3 Zrotation Yrotation Xrotation
					JOINT RightArm
					{
						OFFSET -3.31725 1.61216 0.35156
						CHANNELS 3 Zrotation Yrotation Xrotation
						JOINT RightForeArm
						{
							OFFSET -4.48913 -0.00000 0.00000
							CHANNELS 3 Zrotation Yrotation Xrotation
							JOINT RightHand
							{
								OFFSET -3.70510 -0.00000 0.00000
								CHANNELS 3 Zrotation Yrotation Xrotation
								JOINT RightFingerBase
								{
									OFFSET 0 0 0
									CHANNELS 3 Zrotation Yrotation Xrotation
									JOINT RightHandIndex1
									{
										OFFSET -0.44914 -0.00000 0.00000
										CHANNELS 3 Zrotation Yrotation Xrotation
										End Site
										{
											OFFSET -0.36211 -0.00000 0.00000
										}
									}
								}
								JOINT RThumb
								{
									OFFSET 0 0 0
									CHANNELS 3 Zrotation Yrotation Xrotation
									End Site
									{
										OFFSET -0.36763 -0.00000 0.36763
									}
								}
							}
						}
					}
				}
			}
		}
	}
}
MOTION
Frames: 9
Frame Time: .0083333
-1.0446 18.6870 6.0262 -1.3241 0.8323 0.6168 0.0000 0.0000 0.0000 -12.6525 -9.1051 -2.7922 1.6546 8.1061 23.0369 1.0510 5.3409 -21.9919 8.6614 -16.5848 -54.9117 0.0000 0.0000 0.0000 0.0000 0.0000 0.0000 0.0000 0.0000 0.0000 -0.0000 -0.0000 0.0000 -0.0000 -0.0000 0.0000 -1.9094 1.0193 17.3198 2.6790 1.0880 10.8761 3.7414 0.3616 1.8522 1.2915 0.8816 -1.2782 -2.6984 1.2386 3.6734 -1.0358 0.5908 1.3786 0.0000 -0.0000 0.0000 -89.4811 -6.1780 58.8814 28.2141 -39.3126 -10.2591 -0.0000 -0.0000 10.8176 -13.5118 -11.7830 2.8092 -7.1250 0.0000 -0.0000 -27.4139 18.3345 19.8055 0.0000 -0.0000 0.0000 86.9785 -6.2986 40.8494 -35.5912 45.2297 -15.2315 0.0000 0.0000 22.1472 5.1743 -44.9110 -3.6580 7.1250 -0.0000 -0.0000 57.7207 -66.0047 -33.8617
-1.0409 18.6941 6.0195 -1.2066 0.9590 0.9458 0.0000 0.0000 0.0000 -12.7451 -9.3290 -3.1539 1.6539 8.1046 23.0322 1.0426 5.3741 -21.9391 8.6538 -16.5797 -54.8851 0.0000 0.0000 0.0000 0.0000 0.0000 0.0000 0.0000 0.0000 0.0000 -0.0000 -0.0000 0.0000 -0.0000 -0.0000 0.0000 -1.8342 0.9849 17.3669 2.6937 1.0539 10.8840 3.7194 0.3481 1.8399 1.3017 0.9208 -1.3180 -2.7704 1.2813 3.0878 -1.0577 0.6141 1.2023 0.0000 0.0000 0.0000 -89.5613 -6.1017 58.8676 28.4607 -39.5369 -10.4156 -0.0000 -0.0000 11.0378 -13.1764 -11.8272 2.7472 -7.1250 0.0000 -0.0000 -27.2037 18.3098 19.6267 0.0000 0.0000 0.0000 86.9566 -6.3344 40.7796 -35.7956 45.3720 -15.3769 0.0000 0.0000 22.3909 4.9753 -44.8175 -3.5113 7.1250 -0.0000 -0.0000 57.3821 -66.0122 -33.6159
-1.0364 18.7007 6.0126 -1.1768 1.0885 1.2357 0.0000 0.0000 0.0000 -12.7373 -9.4974 -3.4943 1.6536 8.1037 23.0296 1.0337 5.3768 -21.8631 8.6367 -16.5681 -54.8249 0.0000 0.0000 0.0000 0.0000 0.0000 0.0000 0.0000 0.0000 0.0000 -0.0000 -0.0000 0.0000 -0.0000 -0.0000 0.0000 -1.6415 0.9476 17.4835 2.7349 1.0318 10.8786 3.6562 0.3464 1.7769 1.3276 0.9744 -1.3992 -2.8466 1.3435 2.5705 -1.0837 0.6468 1.0562 -0.0000 0.0000 0.0000 -89.6496 -6.0621 58.9213 28.6361 -39.6953 -10.5275 -0.0000 -0.0000 11.2240 -12.9971 -11.7764 2.6971 -7.1250 0.0000 -0.0000 -27.1050 18.3642 19.4971 -0.0000 0.0000 0.0000 86.9209 -6.3591 40.7448 -35.9871 45.5042 -15.5133 0.0000 0.0000 22.5505 4.6597 -44.7652 -3.2850 7.1250 -0.0000 -0.0000 57.0204 -66.0784 -33.4241
-1.0322 18.7061 6.0048 -1.1890 1.2196 1.4957 0.0000 0.0000 0.0000 -12.6848 -9.6816 -3.7949 1.6535 8.1036 23.0291 1.0309 5.3244 -21.8056 8.6009 -16.5439 -54.6995 0.0000 0.0000 0.0000 0.0000 0.0000 0.0000 0.0000 0.0000 0.0000 -0.0000 -0.0000 0.0000 -0.0000 -0.0000 0.0000 -1.3951 0.9103 17.6514 2.7651 1.0180 10.8599 3.5490 0.3525 1.6733 1.4078 1.0382 -1.4511 -2.8417 1.4159 2.0611 -1.0938 0.6862 0.9083 -0.0000 0.0000 0.0000 -89.7026 -6.0137 58.9306 28.7715 -39.8169 -10.6141 -0.0000 -0.0000 11.4764 -12.8808 -11.8097 2.6796 -7.1250 0.0000 -0.0000 -27.0285 18.3389 19.4439 -0.0000 0.0000 0.0000 86.9917 -6.4229 40.6901 -36.2227 45.6657 -15.6816 0.0000 0.0000 22.6096 4.1281 -44.9239 -2.9176 7.1250 -0.0000 -0.0000 56.8633 -66.3312 -33.6083
-1.0274 18.7108 5.9976 -1.1278 1.3758 1.7124 0.0000 0.0000 0.0000 -12.7163 -9.8233 -4.0777 1.6551 8.1075 23.0410 1.0251 5.2441 -21.7034 8.5968 -16.5411 -54.6849 0.0000 0.0000 0.0000 0.0000 0.0000 0.0000 0.0000 0.0000 0.0000 -0.0000 -0.0000 0.0000 -0.0000 -0.0000 0.0000 -1.2114 0.8749 17.8444 2.7935 0.9988 10.8459 3.4764 0.3527 1.5619 1.4285 1.0818 -1.4934 -2.7691 1.4621 1.5652 -1.0733 0.7126 0.7616 -0.0000 0.0000 0.0000 -89.8137 -5.9555 58.8846 28.8753 -39.9097 -10.6806 -0.0000 -0.0000 11.7556 -12.6772 -11.9964 2.6769 -7.1250 0.0000 -0.0000 -26.8713 18.1773 19.4101 -0.0000 0.0000 0.0000 87.0760 -6.5263 40.5666 -36.4523 45.8218 -15.8460 0.0000 0.0000 22.5654 3.3540 -45.1195 -2.3779 7.1250 -0.0000 -0.0000 56.5750 -66.6809 -33.8052
-1.0209 18.7157 5.9925 -1.0744 1.5482 1.8894 0.0000 0.0000 0.0000 -12.7452 -9.9116 -4.3293 1.6570 8.1118 23.0542 1.0149 5.1580 -21.5589 8.5997 -16.5431 -54.6952 0.0000 0.0000 0.0000 0.0000 0.0000 0.0000 0.0000 0.0000 0.0000 -0.0000 -0.0000 0.0000 -0.0000 -0.0000 0.0000 -1.0271 0.8395 18.0461 2.8805 0.9811 10.8589 3.4661 0.3511 1.4751 1.4330 1.1088 -1.5621 -2.8017 1.4883 1.0514 -1.0834 0.7277 0.6152 -0.0000 -0.0000 0.0000 -90.0184 -5.9312 58.8590 28.9697 -39.9937 -10.7412 -0.0000 -0.0000 11.9734 -12.4417 -12.1347 2.6554 -7.1250 0.0000 -0.0000 -26.7038 18.0609 19.3348 -0.0000 -0.0000 0.0000 87.0541 -6.5632 40.3886 -36.6242 45.9377 -15.9694 0.0000 0.0000 22.4790 2.5025 -45.0927 -1.7730 7.1250 -0.0000 -0.0000 55.8013 -66.9295 -33.5135
-1.0133 18.7216 5.9879 -1.0659 1.7303 2.1249 0.0000 0.0000 0.0000 -12.7148 -10.0359 -4.6206 1.6568 8.1113 23.0526 1.0082 5.0510 -21.4325 8.5614 -16.5170 -54.5604 0.0000 0.0000 0.0000 0.0000 0.0000 0.0000 0.0000 0.0000 0.0000 -0.0000 -0.0000 0.0000 -0.0000 -0.0000 0.0000 -0.8152 0.8061 18.2024 3.0159 0.9718 10.8417 3.4903 0.3537 1.3781 1.4641 1.1233 -1.6562 -2.9279 1.4986 0.5774 -1.1279 0.7341 0.4868 0.0000 -0.0000 0.0000 -90.2389 -5.8856 58.8870 29.0937 -40.1038 -10.8210 -0.0000 -0.0000 12.1932 -12.2784 -12.1738 2.6278 -7.1250 0.0000 -0.0000 -26.5977 18.0317 19.2567 0.0000 -0.0000 0.0000 87.0142 -6.6268 40.0738 -36.8450 46.0855 -16.1283 0.0000 0.0000 22.6864 2.5519 -45.0183 -1.8056 7.1250 -0.0000 -0.0000 55.7018 -66.8712 -33.3713
-1.0060 18.7273 5.9823 -1.0191 1.9537 2.3910 0.0000 0.0000 0.0000 -12.7141 -10.1833 -4.9463 1.6544 8.1058 23.0358 1.0028 4.9317 -21.3109 8.5217 -16.4899 -54.4208 0.0000 0.0000 0.0000 0.0000 0.0000 0.0000 0.0000 0.0000 0.0000 -0.0000 -0.0000 0.0000 -0.0000 -0.0000 0.0000 -0.5918 0.7660 18.2950 3.1093 0.9563 10.8108 3.4645 0.3551 1.2997 1.4967 1.1259 -1.7308 -2.9666 1.4926 0.1475 -1.1456 0.7329 0.3676 0.0000 0.0000 0.0000 -90.3837 -5.8589 58.9636 29.1598 -40.1622 -10.8636 -0.0000 -0.0000 12.4336 -12.2360 -12.3151 2.6483 -7.1250 0.0000 -0.0000 -26.5470 17.9043 19.2959 0.0000 0.0000 0.0000 87.0721 -6.7687 39.6611 -37.1579 46.2929 -16.3541 0.0000 0.0000 23.0793 3.2356 -45.1256 -2.2941 7.1250 -0.0000 -0.0000 56.4864 -66.7210 -33.7856
-0.9988 18.7330 5.9776 -0.9079 2.1776 2.6319 0.0000 0.0000 0.0000 -12.7970 -10.3583 -5.2243 1.6508 8.0974 23.0104 0.9971 4.8489 -21.2081 8.5050 -16.4784 -54.3619 0.0000 0.0000 0.0000 0.0000 0.0000 0.0000 0.0000 0.0000 0.0000 -0.0000 -0.0000 0.0000 -0.0000 -0.0000 0.0000 -0.3646 0.7112 18.3723 3.1450 0.9212 10.8189 3.3790 0.3479 1.2735 1.5714 1.1390 -1.8681 -2.9814 1.4991 -0.2764 -1.1630 0.7375 0.2614 -0.0000 -0.0000 0.0000 -90.4649 -5.9196 59.0552 29.1756 -40.1762 -10.8738 -0.0000 -0.0000 12.5312 -12.1426 -12.4601 2.6579 -7.1250 0.0000 -0.0000 -26.4649 17.7754 19.3065 -0.0000 -0.0000 0.0000 87.2078 -6.8287 39.3150 -37.4293 46.4709 -16.5506 0.0000 0.0000 23.2916 3.1783 -45.2140 -2.2569 7.1250 -0.0000 -0.0000 56.6057 -66.7891 -33.9556
